<?xml version="1.0" encoding="UTF-8"?><svg id="Layer_2" xmlns="http://www.w3.org/2000/svg" viewBox="0 0 23.56 19.94"><path d="m8.61,16.31H1.9c-.06,0-.11-.02-.15-.06-.04-.04-.06-.09-.06-.15V5.27c0-.06.02-.11.06-.15s.09-.06.15-.06h2.6v7.88c0,.93.76,1.69,1.69,1.69h2.52c.14-.6.37-1.17.71-1.69h-3.02c-.06,0-.11-.02-.15-.06-.04-.04-.06-.09-.06-.15V1.9c0-.06.02-.11.06-.15.04-.04.09-.06.15-.06h3.73v3.09c0,.47.38.84.84.84h3.09v2.52l1.69-1.69v-2.95c0-.45-.18-.88-.49-1.19l-1.82-1.82c-.32-.32-.75-.49-1.19-.49h-6.05c-.93,0-1.69.76-1.69,1.69v1.69H1.69c-.93,0-1.69.76-1.69,1.69v11.25c0,.93.76,1.69,1.69,1.69h7.39c-.25-.53-.41-1.1-.47-1.69ZM11.81,1.69h.34c.06,0,.11.02.15.06l1.7,1.7s.04.04.05.07c.01.03.02.05.02.08v.34h-2.25V1.69Z"/><path d="m18.49,11.01c1.63,1.64,1.61,4.26,0,5.87,0,0,0,0,0,.01l-1.84,1.84c-1.62,1.62-4.26,1.62-5.88,0-1.62-1.62-1.62-4.26,0-5.88l1.01-1.01c.27-.27.73-.09.75.29.02.48.1.97.26,1.44.05.16.02.34-.1.45l-.36.36c-.77.77-.79,2.01-.03,2.79.77.78,2.03.79,2.8.01l1.84-1.84c.77-.77.77-2.02,0-2.78-.1-.1-.2-.18-.28-.23-.06-.04-.1-.09-.14-.15-.03-.06-.05-.13-.05-.19-.01-.29.09-.59.32-.82l.58-.58c.15-.15.39-.17.56-.05.2.14.39.3.56.47Zm3.85-3.85c-1.62-1.62-4.26-1.62-5.88,0l-1.84,1.84s0,0,0,.01c-1.6,1.61-1.62,4.23,0,5.87.17.17.36.33.56.47.18.12.41.1.56-.05l.58-.58c.23-.23.33-.53.32-.82,0-.07-.02-.14-.05-.19-.03-.06-.08-.11-.14-.15-.08-.05-.18-.13-.28-.23-.77-.77-.77-2.01,0-2.78l1.84-1.84c.77-.77,2.03-.77,2.8.01.76.77.73,2.02-.03,2.79l-.36.36c-.12.12-.16.3-.1.45.16.47.25.96.26,1.44.01.38.48.56.75.29l1.01-1.01c1.62-1.62,1.62-4.26,0-5.88Z"/></svg>