<svg width="18" height="22" viewBox="0 0 18 22" fill="none" xmlns="http://www.w3.org/2000/svg">
<path d="M14.1429 13.3571C13.2345 13.3571 12.3996 13.6713 11.7406 14.1967L7.62284 11.6231C7.74478 11.0715 7.74478 10.4999 7.62284 9.94831L11.7406 7.37471C12.3996 7.90013 13.2345 8.21429 14.1429 8.21429C16.2731 8.21429 18 6.48737 18 4.35714C18 2.22692 16.2731 0.5 14.1429 0.5C12.0126 0.5 10.2857 2.22692 10.2857 4.35714C10.2857 4.64474 10.3175 4.92487 10.3772 5.1945L6.25942 7.7681C5.60037 7.24273 4.7655 6.92857 3.85714 6.92857C1.72692 6.92857 0 8.65549 0 10.7857C0 12.9159 1.72692 14.6429 3.85714 14.6429C4.7655 14.6429 5.60037 14.3287 6.25942 13.8033L10.3772 16.3769C10.3163 16.6519 10.2856 16.9327 10.2857 17.2143C10.2857 19.3445 12.0126 21.0714 14.1429 21.0714C16.2731 21.0714 18 19.3445 18 17.2143C18 15.0841 16.2731 13.3571 14.1429 13.3571Z" fill="black"/>
</svg>
